HIERARCHY
ROOT Bip001_Pelvis
{
  OFFSET 34.4345 95.6767 -26.8758
  CHANNELS 6 Xposition Yposition Zposition Zrotation Xrotation Yrotation
  JOINT Bip001_Spine
  {
    OFFSET 1.4188e-005 10.2191 -0.0116013
    CHANNELS 3 Zrotation Xrotation Yrotation
    JOINT Bip001_L_Thigh
    {
      OFFSET 11.0458 -10.2192 0.0116197
      CHANNELS 3 Zrotation Xrotation Yrotation
      JOINT Bip001_L_Calf
      {
        OFFSET -0.707118 -44.0221 0.360014
        CHANNELS 3 Zrotation Xrotation Yrotation
        JOINT Bip001_L_Foot
        {
          OFFSET -0.651902 -40.5938 -3.56146
          CHANNELS 3 Zrotation Xrotation Yrotation
          JOINT Bip001_L_Toe0
          {
            OFFSET 0.0530839 -10.2181 13.1504
            CHANNELS 3 Zrotation Xrotation Yrotation
            End Site
            {
              OFFSET -1.02532e-005 0 7.55606
            }
          }
        }
      }
    }
    JOINT Bip001_R_Thigh
    {
      OFFSET -11.0458 -10.2191 0.0115893
      CHANNELS 3 Zrotation Xrotation Yrotation
      JOINT Bip001_R_Calf
      {
        OFFSET 0.706994 -44.0221 0.35984
        CHANNELS 3 Zrotation Xrotation Yrotation
        JOINT Bip001_R_Foot
        {
          OFFSET 0.651786 -40.5938 -3.5613
          CHANNELS 3 Zrotation Xrotation Yrotation
          JOINT Bip001_R_Toe0
          {
            OFFSET -0.0531479 -10.2181 13.1504
            CHANNELS 3 Zrotation Xrotation Yrotation
            End Site
            {
              OFFSET -1.02894e-005 0 7.55606
            }
          }
        }
      }
    }
    JOINT Bip001_Spine1
    {
      OFFSET 1.87041e-005 14.5736 1.08638
      CHANNELS 3 Zrotation Xrotation Yrotation
      JOINT Bip001_Spine2
      {
        OFFSET 2.24614e-005 14.5058 -1.69078
        CHANNELS 3 Zrotation Xrotation Yrotation
        JOINT Bip001_Neck
        {
          OFFSET 2.20278e-005 15.3945 -0.489414
          CHANNELS 3 Zrotation Xrotation Yrotation
          JOINT Bip001_L_Clavicle
          {
            OFFSET 6.06036 -0.000579998 0.00836775
            CHANNELS 3 Zrotation Xrotation Yrotation
            JOINT Bip001_L_UpperArm
            {
              OFFSET 11.5509 -0.0600302 0.00193952
              CHANNELS 3 Zrotation Xrotation Yrotation
              JOINT Bip001_L_Forearm
              {
                OFFSET 25.9523 0.0806089 -2.15551
                CHANNELS 3 Zrotation Xrotation Yrotation
                JOINT Bip001_L_Hand
                {
                  OFFSET 32.2475 0.153767 1.63968
                  CHANNELS 3 Zrotation Xrotation Yrotation
                  JOINT Bip001_L_Finger0
                  {
                    OFFSET 6.04639 -2.20976 5.90322
                    CHANNELS 3 Zrotation Xrotation Yrotation
                    End Site
                    {
                      OFFSET 4.22375 -1.43895 0.606485
                    }
                  }
                  JOINT Bip001_L_Finger1
                  {
                    OFFSET 11.0826 -0.704819 -0.198153
                    CHANNELS 3 Zrotation Xrotation Yrotation
                    End Site
                    {
                      OFFSET 6.20027 -0.397518 -0.0787166
                    }
                  }
                }
              }
            }
          }
          JOINT Bip001_R_Clavicle
          {
            OFFSET -6.06037 -0.000563197 0.00835105
            CHANNELS 3 Zrotation Xrotation Yrotation
            JOINT Bip001_R_UpperArm
            {
              OFFSET -11.5509 -0.0599978 0.00190698
              CHANNELS 3 Zrotation Xrotation Yrotation
              JOINT Bip001_R_Forearm
              {
                OFFSET -25.9523 0.0806822 -2.15589
                CHANNELS 3 Zrotation Xrotation Yrotation
                JOINT Bip001_R_Hand
                {
                  OFFSET -32.2475 0.153859 1.63989
                  CHANNELS 3 Zrotation Xrotation Yrotation
                  JOINT Bip001_R_Finger0
                  {
                    OFFSET -6.04641 -2.20976 5.90317
                    CHANNELS 3 Zrotation Xrotation Yrotation
                    End Site
                    {
                      OFFSET -4.22376 -1.43895 0.60647
                    }
                  }
                  JOINT Bip001_R_Finger1
                  {
                    OFFSET -11.0826 -0.704794 -0.198182
                    CHANNELS 3 Zrotation Xrotation Yrotation
                    End Site
                    {
                      OFFSET -6.20028 -0.397504 -0.0787333
                    }
                  }
                }
              }
            }
          }
          JOINT Bip001_Head
          {
            OFFSET 1.09673e-005 11.2744 2.05948
            CHANNELS 3 Zrotation Xrotation Yrotation
            End Site
            {
              OFFSET 2.89576e-005 20.8808 -2.77728e-005
            }
          }
        }
      }
    }
  }
}
MOTION
Frames:	8
Frame Time:	0.04
33.4373 95.7482 -29.5522 -0.415567 0.867782 -10.1987 -0.269241 2.20384 0.305395 5.5767 -1.24904 9.67113 0.217231 8.15904 8.82691 -0.64084 -6.23115 0.0376231 0.718935 -3.55054 -0.17471 -3.57632 -7.05731 2.66008 1.04466 11.849 -0.155263 -4.98069 -8.41964 2.59634 2.22485 -7.63724 2.44119 -0.550858 4.4062 0.621849 -0.550857 4.4062 0.621846 6.65422 1.22949 1.23004 -29.8515 3.50924 -11.5169 -53.6442 34.7908 5.80626 13.7499 -6.94953 -37.8795 9.8964 3.05132 -4.48184 0 0 -3.18055e-015 3.18055e-015 6.36111e-015 -3.18055e-015 19.264 0.792443 3.08662 54.6141 2.27055 -0.047554 -28.5958 56.218 30.1381 1.26903 -4.48026 12.7679 -4.77083e-015 3.18055e-015 -7.95139e-016 -4.77083e-015 6.36111e-015 -7.95139e-016 -8.47492 -11.7455 4.36939 
33.5731 95.7684 -29.551 -0.490503 0.923785 -9.75065 -0.321253 2.18066 0.34374 5.69757 -1.28453 9.68415 0.0966962 7.97296 8.43199 -0.341574 -6.0617 0.0381327 0.880051 -3.68139 -0.382031 -3.48307 -6.79048 2.78099 1.00178 11.3969 -0.234682 -5.05135 -8.15215 2.16831 2.25724 -7.7375 2.47404 -0.655975 4.35931 0.702092 -0.656073 4.35931 0.701283 6.24255 -0.00562071 1.65311 -29.4842 4.769 -11.2168 -53.6817 34.3298 5.74599 14.0931 -7.77436 -39.8482 10.082 3.39154 -4.47135 -3.18055e-015 -6.36111e-015 4.77083e-015 -3.18055e-015 -9.54167e-015 -0 19.3092 1.76727 2.20945 56.2989 0.398272 0.119108 -22.1794 59.4413 23.1828 2.76447 -4.66814 12.1759 -0 0 3.97569e-016 3.97569e-016 -6.36111e-015 -0 -8.08646 -10.4095 4.6259 
33.7113 95.7966 -29.5781 -0.610573 1.0384 -8.86271 -0.357056 2.16155 0.324141 5.91493 -1.64189 9.88312 0.130343 8.23166 7.75503 -1.2768 -6.75863 0.0397349 0.644329 -2.99116 -0.274341 -3.30186 -6.47277 2.9754 0.899821 10.8302 -0.388408 -5.18637 -7.74779 1.43149 2.31878 -7.91396 2.50819 -0.727207 4.32102 0.662116 -0.727187 4.32102 0.662291 5.20082 -1.55283 2.15012 -28.7238 6.25922 -10.4965 -53.1256 34.4907 5.60881 14.9033 -6.89349 -41.3418 10.705 2.7944 -5.20103 -6.36111e-015 0 3.18055e-015 -9.54166e-015 -3.18056e-015 6.36111e-015 20.047 3.04843 1.36723 57.9292 -2.07866 -0.10287 -17.1718 60.8928 17.8576 5.71974 -3.90999 11.4748 3.97569e-016 3.18055e-015 -3.97569e-016 0 0 -3.97569e-016 -6.95931 -8.92988 4.66962 
33.867 95.8217 -29.5816 -0.614081 1.06125 -7.74383 -0.394033 2.16238 0.303852 5.90759 -1.78219 10.4513 0.0922238 7.90609 5.94217 0.0399961 -5.94427 0.0417442 1.03965 -3.73378 -0.600414 -3.27962 -6.05849 3.00155 0.828828 10.3409 -0.485238 -5.34193 -7.46946 0.60377 2.3348 -7.93316 2.48941 -0.800374 4.31912 0.623238 -0.800374 4.31912 0.623241 5.50942 -2.614 2.34814 -28.7353 7.20062 -10.0047 -53.1979 35.5727 5.2729 15.0914 -6.53488 -41.7278 11.073 2.8362 -5.13823 -9.54166e-015 -9.54166e-015 4.77083e-015 -1.27222e-014 -6.36111e-015 6.36111e-015 19.5436 3.96904 0.762299 59.0339 -4.28119 -0.505732 -16.0555 61.5478 16.63 9.34527 -2.66685 11.7643 -7.95139e-016 0 -7.95139e-016 -1.59028e-015 3.18056e-015 -7.95139e-016 -7.51005 -7.98518 5.02159 
34.0262 95.8456 -29.6283 -0.602036 1.0601 -6.69776 -0.39153 2.1845 0.297164 5.98727 -2.06848 10.5288 -0.138353 7.9546 5.21168 0.113907 -5.99749 0.0439856 1.23068 -3.69534 -0.869337 -3.30037 -5.77835 2.96353 0.697853 9.99811 -0.531745 -5.51162 -7.18201 -0.125548 2.37309 -8.03014 2.49782 -0.79532 4.3669 0.609401 -0.795326 4.36691 0.609667 5.41704 -2.5048 2.64736 -28.5561 7.19671 -10.1876 -53.0479 37.1817 4.97636 15.7776 -5.03053 -41.1869 10.5922 3.30951 -5.09759 6.36111e-015 0 -1.59028e-015 6.36111e-015 0 -1.59028e-015 19.6556 3.79169 0.612173 58.9701 -6.53576 -1.49601 -18.8574 62.5148 20.527 9.67642 -2.44969 12.9542 3.18055e-015 -3.18055e-015 -0 1.59028e-015 0 -3.97569e-016 -7.91432 -8.63604 5.34015 
34.2112 95.8576 -29.7378 -0.638512 1.10019 -5.86406 -0.346423 2.20333 0.260762 5.9708 -2.53974 9.84868 -0.228407 8.33787 5.37458 -0.189704 -6.35609 0.0460598 1.15169 -3.38538 -0.864007 -3.34746 -5.75164 3.07455 0.651053 9.94262 -0.539387 -5.68083 -6.8952 -0.840739 2.42482 -8.16653 2.51906 -0.703662 4.40309 0.535434 -0.703663 4.40309 0.535436 5.86098 -3.26007 2.58886 -28.9377 7.80767 -9.68567 -53.4438 38.2532 5.45508 16.7936 -2.72995 -40.8612 9.86258 3.97039 -5.07053 -9.54166e-015 -9.54166e-015 3.18055e-015 -6.36111e-015 -6.36111e-015 1.59028e-015 19.3126 4.56329 0.472668 58.3285 -8.1262 -1.87749 -20.1853 61.4493 23.5391 6.58203 -3.06537 13.6612 1.65521e-032 3.18055e-015 -2.98177e-016 9.93923e-017 3.18056e-015 -4.96962e-016 -8.72766 -7.96871 5.50228 
34.431 95.8508 -29.824 -0.657753 1.1006 -5.34138 -0.308655 2.20287 0.20403 5.77432 -2.71316 9.77616 -0.269417 8.22508 4.84783 1.43142 -5.44039 0.0474717 1.82078 -4.42919 -1.41511 -3.49131 -5.68965 3.00234 0.662316 9.87316 -0.600182 -5.69632 -6.75698 -1.05301 2.46715 -8.24641 2.52982 -0.625869 4.39858 0.420392 -0.625872 4.39859 0.420395 6.36476 -3.35365 2.58118 -29.292 7.80534 -9.38442 -54.1698 39.3189 6.32336 17.7021 0.0730039 -40.0955 9.60687 3.96988 -5.47985 1.32417e-031 -1.59028e-015 4.77083e-015 3.18055e-015 -3.18056e-015 3.18055e-015 18.5076 4.6822 0.474316 58.1325 -9.05867 -1.16711 -20.3622 60.3427 24.7804 1.39528 -4.44906 14.9097 7.95139e-016 -3.18055e-015 -1.59028e-015 0 0 -7.95139e-016 -9.58107 -7.7924 5.78666 
34.6319 95.846 -29.8825 -0.600466 0.995888 -5.31885 -0.290511 2.2147 0.166728 5.68831 -2.76932 10.0525 -0.367111 8.51622 4.77132 0.843557 -6.01443 0.0480958 1.5355 -3.8916 -1.20103 -3.73947 -5.63849 2.926 0.680304 9.7509 -0.598922 -5.86889 -6.72381 -1.35142 2.44968 -8.63135 3.11079 -0.588131 4.42845 0.345088 -0.588133 4.42846 0.345084 6.87854 -3.36018 2.63439 -29.8425 7.76234 -9.10297 -54.8636 40.2154 7.43929 17.9752 2.08811 -39.0406 8.4343 3.99084 -5.65644 -0 -1.59028e-015 -0 4.41391e-032 1.59028e-015 -1.59028e-015 17.9059 4.76236 0.652139 57.9961 -9.71786 0.200123 -22.8143 61.6524 27.0248 -4.94533 -7.49001 16.9253 -4.77083e-015 1.27222e-014 -0 -3.18055e-015 1.59028e-014 -0 -10.3878 -7.63798 6.11418 
